<?xml version="1.0" encoding="UTF-8" standalone="no"?>
<!-- Generator: Adobe Illustrator 16.0.0, SVG Export Plug-In . SVG Version: 6.00 Build 0)  -->

<svg
   xmlns:dc="http://purl.org/dc/elements/1.1/"
   xmlns:cc="http://creativecommons.org/ns#"
   xmlns:rdf="http://www.w3.org/1999/02/22-rdf-syntax-ns#"
   xmlns:svg="http://www.w3.org/2000/svg"
   xmlns="http://www.w3.org/2000/svg"
   xmlns:sodipodi="http://sodipodi.sourceforge.net/DTD/sodipodi-0.dtd"
   xmlns:inkscape="http://www.inkscape.org/namespaces/inkscape"
   version="1.1"
   id="Layer_1"
   x="0px"
   y="0px"
   width="16"
   height="16"
   viewBox="0 0 16 16"
   enable-background="new 0 0 32 32"
   xml:space="preserve"
   inkscape:version="0.48.4 r9939"
   sodipodi:docname="content-file.svg"><metadata
     id="metadata26"><rdf:RDF><cc:Work
         rdf:about=""><dc:format>image/svg+xml</dc:format><dc:type
           rdf:resource="http://purl.org/dc/dcmitype/StillImage" /></cc:Work></rdf:RDF></metadata><defs
     id="defs24" /><sodipodi:namedview
     pagecolor="#ffffff"
     bordercolor="#666666"
     borderopacity="1"
     objecttolerance="10"
     gridtolerance="10"
     guidetolerance="10"
     inkscape:pageopacity="0"
     inkscape:pageshadow="2"
     inkscape:window-width="733"
     inkscape:window-height="480"
     id="namedview22"
     showgrid="false"
     inkscape:zoom="7.375"
     inkscape:cx="16"
     inkscape:cy="16"
     inkscape:window-x="65"
     inkscape:window-y="24"
     inkscape:window-maximized="0"
     inkscape:current-layer="Layer_1" /><g
     id="note"
     transform="scale(0.5,0.5)"><path
       clip-rule="evenodd"
       d="m 31.414,7.585 -6,-6 C 25.039,1.21 24.529,1 24,1 H 3 C 1.346,1 0,2.345 0,4 v 24 c 0,1.654 1.346,3 3,3 h 26 c 1.654,0 3,-1.346 3,-3 V 9 C 32,8.469 31.789,7.96 31.414,7.585 z M 30,28 c 0,0.553 -0.447,1 -1,1 H 3 C 2.447,29 2,28.553 2,28 V 4 C 2,3.447 2.447,3 3,3 h 20 v 4 h -0.002 c 0,1.657 1.344,3 3,3 h 1 H 30 V 28 z M 26.998,9 h -1 c -1.102,0 -2,-0.897 -2,-2 H 24 V 3 l 6,6 h -3.002 z"
       id="path4"
       inkscape:connector-curvature="0"
       style="fill:#333333;fill-rule:evenodd" /><path
       clip-rule="evenodd"
       d="m 15.5,8 h 5 C 20.775,8 21,7.776 21,7.5 21,7.224 20.775,7 20.5,7 h -5 C 15.224,7 15,7.223 15,7.5 15,7.777 15.224,8 15.5,8 z"
       id="path6"
       inkscape:connector-curvature="0"
       style="fill:#333333;fill-rule:evenodd" /><path
       clip-rule="evenodd"
       d="m 15.5,11 h 5 C 20.775,11 21,10.776 21,10.5 21,10.224 20.775,10 20.5,10 h -5 c -0.276,0 -0.5,0.224 -0.5,0.5 0,0.276 0.224,0.5 0.5,0.5 z"
       id="path8"
       inkscape:connector-curvature="0"
       style="fill:#333333;fill-rule:evenodd" /><path
       clip-rule="evenodd"
       d="m 15,13.5 c 0,0.276 0.224,0.5 0.5,0.5 h 12 C 27.775,14 28,13.776 28,13.5 28,13.224 27.775,13 27.5,13 h -12 C 15.224,13 15,13.223 15,13.5 z"
       id="path10"
       inkscape:connector-curvature="0"
       style="fill:#333333;fill-rule:evenodd" /><path
       clip-rule="evenodd"
       d="M 27.5,19 H 4.5 C 4.224,19 4,19.223 4,19.5 4,19.775 4.224,20 4.5,20 h 23 C 27.775,20 28,19.775 28,19.5 28,19.223 27.775,19 27.5,19 z"
       id="path12"
       inkscape:connector-curvature="0"
       style="fill:#333333;fill-rule:evenodd" /><path
       clip-rule="evenodd"
       d="M 27.5,22 H 4.5 C 4.224,22 4,22.223 4,22.5 4,22.775 4.224,23 4.5,23 h 23 C 27.775,23 28,22.775 28,22.5 28,22.223 27.775,22 27.5,22 z"
       id="path14"
       inkscape:connector-curvature="0"
       style="fill:#333333;fill-rule:evenodd" /><path
       clip-rule="evenodd"
       d="M 27.5,25 H 4.5 C 4.224,25 4,25.223 4,25.5 4,25.775 4.224,26 4.5,26 h 23 C 27.775,26 28,25.775 28,25.5 28,25.223 27.775,25 27.5,25 z"
       id="path16"
       inkscape:connector-curvature="0"
       style="fill:#333333;fill-rule:evenodd" /><path
       clip-rule="evenodd"
       d="M 27.5,16 H 4.5 C 4.224,16 4,16.223 4,16.5 4,16.777 4.224,17 4.5,17 h 23 C 27.775,17 28,16.776 28,16.5 28,16.224 27.775,16 27.5,16 z"
       id="path18"
       inkscape:connector-curvature="0"
       style="fill:#333333;fill-rule:evenodd" /><path
       clip-rule="evenodd"
       d="m 5,14 h 7 c 0.553,0 1,-0.447 1,-1 V 7 C 13,6.447 12.553,6 12,6 H 5 C 4.447,6 4,6.447 4,7 v 6 c 0,0.552 0.447,1 1,1 z M 6,8 h 5 v 4 H 6 V 8 z"
       id="path20"
       inkscape:connector-curvature="0"
       style="fill:#333333;fill-rule:evenodd" /></g></svg>