<?xml version="1.0" encoding="UTF-8" standalone="no"?>
<!-- Generator: Adobe Illustrator 16.0.0, SVG Export Plug-In . SVG Version: 6.00 Build 0)  -->

<svg
   xmlns:dc="http://purl.org/dc/elements/1.1/"
   xmlns:cc="http://creativecommons.org/ns#"
   xmlns:rdf="http://www.w3.org/1999/02/22-rdf-syntax-ns#"
   xmlns:svg="http://www.w3.org/2000/svg"
   xmlns="http://www.w3.org/2000/svg"
   xmlns:sodipodi="http://sodipodi.sourceforge.net/DTD/sodipodi-0.dtd"
   xmlns:inkscape="http://www.inkscape.org/namespaces/inkscape"
   version="1.1"
   id="Layer_1"
   x="0px"
   y="0px"
   width="16"
   height="16"
   viewBox="0 0 16 16"
   enable-background="new 0 0 32 32"
   xml:space="preserve"
   inkscape:version="0.48.4 r9939"
   sodipodi:docname="image-file.svg"><metadata
     id="metadata14"><rdf:RDF><cc:Work
         rdf:about=""><dc:format>image/svg+xml</dc:format><dc:type
           rdf:resource="http://purl.org/dc/dcmitype/StillImage" /></cc:Work></rdf:RDF></metadata><defs
     id="defs12" /><sodipodi:namedview
     pagecolor="#ffffff"
     bordercolor="#666666"
     borderopacity="1"
     objecttolerance="10"
     gridtolerance="10"
     guidetolerance="10"
     inkscape:pageopacity="0"
     inkscape:pageshadow="2"
     inkscape:window-width="733"
     inkscape:window-height="480"
     id="namedview10"
     showgrid="false"
     inkscape:zoom="7.375"
     inkscape:cx="16"
     inkscape:cy="16"
     inkscape:window-x="65"
     inkscape:window-y="24"
     inkscape:window-maximized="0"
     inkscape:current-layer="Layer_1" /><g
     id="photo_1_"
     transform="scale(0.5,0.5)"><path
       d="M 27,0 H 5 C 2.791,0 1,1.791 1,4 v 24 c 0,2.209 1.791,4 4,4 h 22 c 2.209,0 4,-1.791 4,-4 V 4 C 31,1.791 29.209,0 27,0 z m 2,28 c 0,1.102 -0.898,2 -2,2 H 5 C 3.897,30 3,29.102 3,28 V 4 C 3,2.897 3.897,2 5,2 h 22 c 1.102,0 2,0.897 2,2 v 24 z"
       id="path4"
       inkscape:connector-curvature="0"
       style="fill:#333333" /><path
       d="M 26,4 H 6 C 5.447,4 5,4.447 5,5 v 18 c 0,0.553 0.447,1 1,1 h 20 c 0.553,0 1,-0.447 1,-1 V 5 C 27,4.447 26.553,4 26,4 z m 0,1 v 13.869 l -3.25,-3.53 C 22.559,15.123 22.287,15 22,15 c -0.287,0 -0.561,0.123 -0.75,0.339 l -2.604,2.95 -7.896,-8.95 C 10.56,9.123 10.287,9 10,9 9.713,9 9.44,9.123 9.25,9.339 L 6,13.087 V 5 h 20 z m -20,9.6 4,-4.6 8.066,9.143 0.58,0.658 L 21.408,23 H 6 V 14.6 z M 22.74,23 19.312,19.045 22,16 26,20.379 V 23 h -3.26 z"
       id="path6"
       inkscape:connector-curvature="0"
       style="fill:#333333" /><path
       d="m 20,13 c 1.656,0 3,-1.343 3,-3 0,-1.657 -1.344,-3 -3,-3 -1.658,0 -3,1.343 -3,3 0,1.657 1.342,3 3,3 z m 0,-5 c 1.102,0 2,0.897 2,2 0,1.103 -0.898,2 -2,2 -1.104,0 -2,-0.897 -2,-2 0,-1.103 0.896,-2 2,-2 z"
       id="path8"
       inkscape:connector-curvature="0"
       style="fill:#333333" /></g></svg>