<?xml version="1.0" encoding="UTF-8" standalone="no"?>
<!-- Generator: Adobe Illustrator 16.0.0, SVG Export Plug-In . SVG Version: 6.00 Build 0)  -->

<svg
   xmlns:dc="http://purl.org/dc/elements/1.1/"
   xmlns:cc="http://creativecommons.org/ns#"
   xmlns:rdf="http://www.w3.org/1999/02/22-rdf-syntax-ns#"
   xmlns:svg="http://www.w3.org/2000/svg"
   xmlns="http://www.w3.org/2000/svg"
   xmlns:sodipodi="http://sodipodi.sourceforge.net/DTD/sodipodi-0.dtd"
   xmlns:inkscape="http://www.inkscape.org/namespaces/inkscape"
   version="1.1"
   id="Layer_1"
   x="0px"
   y="0px"
   width="16"
   height="16"
   viewBox="0 0 16 16"
   enable-background="new 0 0 32 32"
   xml:space="preserve"
   inkscape:version="0.48.4 r9939"
   sodipodi:docname="intro-file.svg"><metadata
     id="metadata8"><rdf:RDF><cc:Work
         rdf:about=""><dc:format>image/svg+xml</dc:format><dc:type
           rdf:resource="http://purl.org/dc/dcmitype/StillImage" /></cc:Work></rdf:RDF></metadata><defs
     id="defs6" /><sodipodi:namedview
     pagecolor="#ffffff"
     bordercolor="#666666"
     borderopacity="1"
     objecttolerance="10"
     gridtolerance="10"
     guidetolerance="10"
     inkscape:pageopacity="0"
     inkscape:pageshadow="2"
     inkscape:window-width="733"
     inkscape:window-height="480"
     id="namedview4"
     showgrid="false"
     inkscape:zoom="7.375"
     inkscape:cx="16"
     inkscape:cy="16"
     inkscape:window-x="65"
     inkscape:window-y="24"
     inkscape:window-maximized="0"
     inkscape:current-layer="Layer_1" /><path
     id="shop_1_"
     d="M 15.7,5.6 14.2,3.601 C 14.1415,3.5225 14.072,3.4545 14,3.3895 V 1 C 14,0.448 13.552,0 13,0 H 3 C 2.4475,0 2,0.448 2,1 V 3.39 C 1.928,3.4545 1.8585,3.522 1.8,3.6 L 0.3005,5.5995 C 0.1065,5.8575 0,6.177 0,6.5 V 7 c 0,0.827 0.673,1.5 1.5,1.5 h 0 V 15 c 0,0.552 0.448,1 1,1 h 11 c 0.552,0 1,-0.448 1,-1 V 8.5 l 0,0 C 15.327,8.5 16,7.827 16,7 V 6.5 C 16,6.177 15.8935,5.8575 15.7,5.6 z M 13,1 V 3 H 3 3 V 1 H 13 z M 5.0965,7.5 H 3.002 l 2,-3.5 h 1.0945 l -1,3.5 z M 6.617,4 H 7.75 V 7.5 H 5.617 l 1,-3.5 z M 8.25,4 h 1.133 l 1,3.5 H 8.25 V 4 z m 1.6525,0 h 1.0945 l 2,3.5 h -2.0945 l -1,-3.5 z M 1,7 V 6.5 C 1,6.3915 1.035,6.2865 1.1,6.2 l 1.5,-2 C 2.6945,4.074 2.8425,4 3,4 h 1.426 l -2,3.5 H 1.5 C 1.224,7.5 1,7.2765 1,7 z m 9,8 H 6.25 V 10 H 10 v 5 z m 3.5,0 h -3 V 10 C 10.5,9.7235 10.2755,9.5 10,9.5 H 6.25 c -0.276,0 -0.5,0.2235 -0.5,0.5 v 5 H 2.5 V 8.5 h 11 V 15 z M 15,7 c 0,0.2765 -0.2235,0.5 -0.5,0.5 h -0.927 l -2,-3.5 H 13 l 0,0 c 0.157,0 0.3055,0.074 0.3995,0.2 l 1.5,2 C 14.965,6.2865 15,6.3915 15,6.5 V 7 z"
     inkscape:connector-curvature="0"
     style="fill:#333332" /></svg>