<?xml version="1.0" encoding="UTF-8" standalone="no"?>
<!-- Generator: Adobe Illustrator 16.0.0, SVG Export Plug-In . SVG Version: 6.00 Build 0)  -->

<svg
   xmlns:dc="http://purl.org/dc/elements/1.1/"
   xmlns:cc="http://creativecommons.org/ns#"
   xmlns:rdf="http://www.w3.org/1999/02/22-rdf-syntax-ns#"
   xmlns:svg="http://www.w3.org/2000/svg"
   xmlns="http://www.w3.org/2000/svg"
   xmlns:sodipodi="http://sodipodi.sourceforge.net/DTD/sodipodi-0.dtd"
   xmlns:inkscape="http://www.inkscape.org/namespaces/inkscape"
   version="1.1"
   id="Layer_1"
   x="0px"
   y="0px"
   width="16"
   height="16"
   viewBox="0 0 16 16"
   enable-background="new 0 0 32 32"
   xml:space="preserve"
   inkscape:version="0.48.4 r9939"
   sodipodi:docname="mail-file.svg"><metadata
     id="metadata8"><rdf:RDF><cc:Work
         rdf:about=""><dc:format>image/svg+xml</dc:format><dc:type
           rdf:resource="http://purl.org/dc/dcmitype/StillImage" /></cc:Work></rdf:RDF></metadata><defs
     id="defs6" /><sodipodi:namedview
     pagecolor="#ffffff"
     bordercolor="#666666"
     borderopacity="1"
     objecttolerance="10"
     gridtolerance="10"
     guidetolerance="10"
     inkscape:pageopacity="0"
     inkscape:pageshadow="2"
     inkscape:window-width="733"
     inkscape:window-height="480"
     id="namedview4"
     showgrid="false"
     inkscape:zoom="7.375"
     inkscape:cx="28.584518"
     inkscape:cy="16"
     inkscape:window-x="65"
     inkscape:window-y="24"
     inkscape:window-maximized="0"
     inkscape:current-layer="Layer_1" /><path
     id="mail"
     d="M 14,2.75 H 2 c -1.1045,0 -2,0.896 -2,2 v 6.5 c 0,1.1045 0.8955,2 2,2 h 12 c 1.1045,0 2,-0.8955 2,-2 v -6.5 c 0,-1.104 -0.8955,-2 -2,-2 z M 1,5.375 4.4995,8 1,10.625 v -5.25 z m 14,5.875 c 0,0.552 -0.449,1 -1,1 H 2 c -0.5515,0 -1,-0.448 -1,-1 L 4.916,8.3125 7.1,9.951 c 0.2665,0.199 0.583,0.3 0.9,0.3 0.3165,0 0.633,-0.1005 0.8995,-0.3 L 11.084,8.3125 15,11.25 l 0,0 z M 15,10.625 11.5,8 15,5.375 v 5.25 z M 8.5995,9.551 C 8.425,9.682 8.218,9.751 8,9.751 7.782,9.751 7.5745,9.6815 7.4,9.551 L 5.3325,8 4.916,7.6875 1,4.7505 V 4.75 c 0,-0.5515 0.4485,-1 1,-1 h 12 c 0.551,0 1,0.4485 1,1 L 8.5995,9.551 z"
     inkscape:connector-curvature="0"
     style="fill:#333333" /></svg>