<?xml version="1.0" encoding="UTF-8" standalone="no"?>
<!-- Generator: Adobe Illustrator 16.0.0, SVG Export Plug-In . SVG Version: 6.00 Build 0)  -->

<svg
   xmlns:dc="http://purl.org/dc/elements/1.1/"
   xmlns:cc="http://creativecommons.org/ns#"
   xmlns:rdf="http://www.w3.org/1999/02/22-rdf-syntax-ns#"
   xmlns:svg="http://www.w3.org/2000/svg"
   xmlns="http://www.w3.org/2000/svg"
   xmlns:sodipodi="http://sodipodi.sourceforge.net/DTD/sodipodi-0.dtd"
   xmlns:inkscape="http://www.inkscape.org/namespaces/inkscape"
   version="1.1"
   id="Layer_1"
   x="0px"
   y="0px"
   width="16"
   height="16"
   viewBox="0 0 16 16"
   enable-background="new 0 0 32 32"
   xml:space="preserve"
   inkscape:version="0.48.4 r9939"
   sodipodi:docname="map-file.svg"><metadata
     id="metadata8"><rdf:RDF><cc:Work
         rdf:about=""><dc:format>image/svg+xml</dc:format><dc:type
           rdf:resource="http://purl.org/dc/dcmitype/StillImage" /></cc:Work></rdf:RDF></metadata><defs
     id="defs6" /><sodipodi:namedview
     pagecolor="#ffffff"
     bordercolor="#666666"
     borderopacity="1"
     objecttolerance="10"
     gridtolerance="10"
     guidetolerance="10"
     inkscape:pageopacity="0"
     inkscape:pageshadow="2"
     inkscape:window-width="733"
     inkscape:window-height="480"
     id="namedview4"
     showgrid="false"
     inkscape:zoom="7.375"
     inkscape:cx="38.508475"
     inkscape:cy="16"
     inkscape:window-x="65"
     inkscape:window-y="24"
     inkscape:window-maximized="0"
     inkscape:current-layer="Layer_1" /><path
     id="world"
     d="M 8,0 C 3.581419,0 0,3.581419 0,8 c 0,4.418581 3.581419,8 8,8 4.418581,0 8,-3.581419 8,-8 C 16,3.581419 12.418581,0 8,0 z m 6.954839,7.741935 h -3.09471 C 11.831739,6.59871 11.628387,5.506581 11.267613,4.506839 11.964387,4.216258 12.608516,3.829677 13.195871,3.372903 14.24,4.545032 14.892903,6.067097 14.954839,7.741935 z M 7.714581,14.95329 C 6.856774,14.238968 6.13729,13.311484 5.610839,12.234323 6.286452,12.023226 7.002323,11.907613 7.741935,11.883871 v 3.070452 c -0.0093,0 -0.01806,-5.17e-4 -0.02735,-0.001 z M 8.284387,1.04671 c 0.973419,0.810322 1.767742,1.895742 2.305032,3.161806 -0.736,0.251355 -1.517935,0.397419 -2.331871,0.423226 V 1.045161 c 0.0098,5.16e-4 0.01807,10e-4 0.02684,0.0015 z m 0.859871,0.08774 c 1.424516,0.236903 2.702452,0.902193 3.697548,1.86529 -0.540387,0.414452 -1.130838,0.765419 -1.76929,1.031226 C 10.602839,2.917675 9.943742,1.933417 9.144258,1.13445 z M 7.741935,1.04516 V 4.63174 C 6.928,4.605422 6.145548,4.459871 5.410065,4.208516 5.947355,2.942452 6.741677,1.857033 7.715097,1.04671 c 0.0093,-5.16e-4 0.01755,-0.001 0.02684,-0.0016 z M 4.926968,4.031484 C 4.289548,3.765677 3.698581,3.41471 3.158194,3.000258 4.152774,2.037162 5.431226,1.371871 6.855742,1.134968 6.055742,1.93342 5.397161,2.917677 4.926968,4.031484 z m 0.288516,0.652903 c 0.795871,0.276129 1.643871,0.437161 2.526451,0.464 V 7.741935 H 4.656 C 4.68387,6.661161 4.875355,5.628387 5.215484,4.684387 z m 2.526451,3.573678 v 3.109677 C 6.928,11.392512 6.140903,11.525677 5.399226,11.764645 4.952258,10.700387 4.688516,9.514839 4.656,8.258065 h 3.085935 z m -0.886193,6.607483 c -1.276387,-0.212129 -2.435613,-0.768 -3.378065,-1.575225 0.508388,-0.352517 1.058065,-0.650839 1.64542,-0.87742 0.450064,0.933162 1.038968,1.761549 1.732645,2.452645 z m 1.402323,0.08929 v -3.070452 c 0.739096,0.02374 1.455483,0.139355 2.131096,0.350452 -0.526967,1.077161 -1.245935,2.004645 -2.103742,2.718967 -0.0088,0 -0.01806,5.17e-4 -0.02735,0.001 z m 2.618838,-2.541936 c 0.586839,0.226581 1.136,0.52542 1.64542,0.87742 -0.942452,0.806709 -2.101678,1.363096 -3.378065,1.575225 0.693677,-0.691096 1.282065,-1.519483 1.732645,-2.452645 z M 10.600774,11.764644 C 9.858581,11.525676 9.071484,11.392515 8.258065,11.367741 V 8.258065 H 11.344 c -0.03252,1.256774 -0.296774,2.442322 -0.743226,3.50658 z M 8.258065,7.741934 V 5.148386 c 0.882064,-0.02684 1.730064,-0.187355 2.526451,-0.463484 0.339613,0.944 0.531097,1.976774 0.559484,3.057549 H 8.258065 z M 2.804645,3.372902 C 3.392,3.829676 4.036129,4.216257 4.732387,4.506838 4.371613,5.50658 4.168258,6.598709 4.139871,7.741934 H 1.0451613 C 1.1070968,6.067097 1.76,4.545032 2.804645,3.372903 z M 1.0451613,8.258064 H 4.139871 c 0.032,1.318709 0.307613,2.564129 0.775742,3.683612 C 4.261677,12.196644 3.652129,12.536257 3.089548,12.938322 1.8776774,11.732129 1.1127742,10.083097 1.0451613,8.258065 z m 11.8652907,4.679741 c -0.562581,-0.401548 -1.172129,-0.741677 -1.826581,-0.996645 0.468645,-1.119484 0.743742,-2.364903 0.776258,-3.683613 h 3.09471 c -0.06761,1.825549 -0.833033,3.474581 -2.044387,4.680258 z"
     inkscape:connector-curvature="0"
     style="fill:#333332" /></svg>