<?xml version="1.0" encoding="UTF-8" standalone="no"?>
<!-- Generator: Adobe Illustrator 16.0.0, SVG Export Plug-In . SVG Version: 6.00 Build 0)  -->

<svg
   xmlns:dc="http://purl.org/dc/elements/1.1/"
   xmlns:cc="http://creativecommons.org/ns#"
   xmlns:rdf="http://www.w3.org/1999/02/22-rdf-syntax-ns#"
   xmlns:svg="http://www.w3.org/2000/svg"
   xmlns="http://www.w3.org/2000/svg"
   xmlns:sodipodi="http://sodipodi.sourceforge.net/DTD/sodipodi-0.dtd"
   xmlns:inkscape="http://www.inkscape.org/namespaces/inkscape"
   version="1.1"
   id="Layer_1"
   x="0px"
   y="0px"
   width="16"
   height="16"
   viewBox="0 0 16 16"
   enable-background="new 0 0 32 32"
   xml:space="preserve"
   inkscape:version="0.48.4 r9939"
   sodipodi:docname="search.svg"><metadata
     id="metadata12"><rdf:RDF><cc:Work
         rdf:about=""><dc:format>image/svg+xml</dc:format><dc:type
           rdf:resource="http://purl.org/dc/dcmitype/StillImage" /></cc:Work></rdf:RDF></metadata><defs
     id="defs10" /><sodipodi:namedview
     pagecolor="#ffffff"
     bordercolor="#666666"
     borderopacity="1"
     objecttolerance="10"
     gridtolerance="10"
     guidetolerance="10"
     inkscape:pageopacity="0"
     inkscape:pageshadow="2"
     inkscape:window-width="733"
     inkscape:window-height="480"
     id="namedview8"
     showgrid="false"
     inkscape:zoom="7.375"
     inkscape:cx="16"
     inkscape:cy="16"
     inkscape:window-x="65"
     inkscape:window-y="24"
     inkscape:window-maximized="0"
     inkscape:current-layer="Layer_1" /><g
     id="search_1_"
     transform="matrix(0.5,0,0,0.49998438,0,-0.0025)"><path
       d="m 20,0.005 c -6.627,0 -12,5.373 -12,12 0,2.026 0.507,3.933 1.395,5.608 l -8.344,8.342 0.007,0.006 C 0.406,26.602 0,27.49 0,28.477 c 0,1.949 1.58,3.529 3.529,3.529 0.985,0 1.874,-0.406 2.515,-1.059 l -0.002,-0.002 8.341,-8.34 c 1.676,0.891 3.586,1.4 5.617,1.4 6.627,0 12,-5.373 12,-12 0,-6.627 -5.373,-12 -12,-12 z M 4.795,29.697 c -0.322,0.334 -0.768,0.543 -1.266,0.543 -0.975,0 -1.765,-0.789 -1.765,-1.764 0,-0.498 0.21,-0.943 0.543,-1.266 l -0.009,-0.008 8.066,-8.066 c 0.705,0.951 1.545,1.791 2.494,2.498 L 4.795,29.697 z M 20,22.006 c -5.522,0 -10,-4.479 -10,-10 0,-5.522 4.478,-10 10,-10 5.521,0 10,4.478 10,10 0,5.521 -4.479,10 -10,10 z"
       id="path4"
       inkscape:connector-curvature="0"
       style="fill:#333333" /><path
       d="m 20,5.005 c -3.867,0 -7,3.134 -7,7 0,0.276 0.224,0.5 0.5,0.5 0.276,0 0.5,-0.224 0.5,-0.5 0,-3.313 2.686,-6 6,-6 0.275,0 0.5,-0.224 0.5,-0.5 0,-0.276 -0.225,-0.5 -0.5,-0.5 z"
       id="path6"
       inkscape:connector-curvature="0"
       style="fill:#333333" /></g></svg>