<?xml version="1.0" encoding="UTF-8" standalone="no"?>
<!-- Generator: Adobe Illustrator 16.0.0, SVG Export Plug-In . SVG Version: 6.00 Build 0)  -->

<svg
   xmlns:dc="http://purl.org/dc/elements/1.1/"
   xmlns:cc="http://creativecommons.org/ns#"
   xmlns:rdf="http://www.w3.org/1999/02/22-rdf-syntax-ns#"
   xmlns:svg="http://www.w3.org/2000/svg"
   xmlns="http://www.w3.org/2000/svg"
   xmlns:sodipodi="http://sodipodi.sourceforge.net/DTD/sodipodi-0.dtd"
   xmlns:inkscape="http://www.inkscape.org/namespaces/inkscape"
   version="1.1"
   id="Layer_1"
   x="0px"
   y="0px"
   width="16"
   height="16"
   viewBox="0 0 16 16"
   enable-background="new 0 0 32 32"
   xml:space="preserve"
   inkscape:version="0.48.4 r9939"
   sodipodi:docname="settings.svg"><metadata
     id="metadata14"><rdf:RDF><cc:Work
         rdf:about=""><dc:format>image/svg+xml</dc:format><dc:type
           rdf:resource="http://purl.org/dc/dcmitype/StillImage" /></cc:Work></rdf:RDF></metadata><defs
     id="defs12" /><sodipodi:namedview
     pagecolor="#ffffff"
     bordercolor="#666666"
     borderopacity="1"
     objecttolerance="10"
     gridtolerance="10"
     guidetolerance="10"
     inkscape:pageopacity="0"
     inkscape:pageshadow="2"
     inkscape:window-width="733"
     inkscape:window-height="480"
     id="namedview10"
     showgrid="false"
     inkscape:zoom="7.375"
     inkscape:cx="16"
     inkscape:cy="16"
     inkscape:window-x="65"
     inkscape:window-y="24"
     inkscape:window-maximized="0"
     inkscape:current-layer="Layer_1" /><g
     id="settings"
     transform="matrix(0.5,0,0,0.50001563,0,-10e-4)"><path
       d="M 30.391,12.68 27.327,12.066 C 27.173,11.623 26.991,11.193 26.79,10.777 L 28.526,8.173 C 29.055,7.38 28.95,6.323 28.276,5.65 L 26.352,3.726 C 25.965,3.339 25.454,3.14 24.936,3.14 c -0.383,0 -0.77,0.11 -1.107,0.336 L 21.225,5.211 C 20.807,5.009 20.377,4.829 19.934,4.675 L 19.32,1.61 C 19.134,0.674 18.312,0.002 17.359,0.002 h -2.72 c -0.953,0 -1.774,0.673 -1.961,1.608 L 12.064,4.675 C 11.621,4.829 11.191,5.01 10.775,5.211 L 8.172,3.476 C 7.833,3.25 7.447,3.14 7.063,3.14 6.546,3.14 6.035,3.339 5.648,3.726 L 3.725,5.65 C 3.051,6.324 2.946,7.38 3.475,8.173 l 1.735,2.604 c -0.202,0.417 -0.382,0.847 -0.536,1.29 L 1.608,12.68 C 0.673,12.867 0,13.688 0,14.641 v 2.72 c 0,0.953 0.673,1.775 1.608,1.961 l 3.065,0.615 c 0.154,0.443 0.335,0.873 0.536,1.289 L 3.475,23.83 c -0.529,0.793 -0.424,1.85 0.25,2.523 l 1.924,1.924 c 0.387,0.387 0.898,0.586 1.415,0.586 0.384,0 0.771,-0.111 1.108,-0.336 l 2.604,-1.736 c 0.417,0.203 0.847,0.383 1.29,0.537 l 0.613,3.064 c 0.187,0.936 1.008,1.609 1.961,1.609 h 2.72 c 0.953,0 1.775,-0.674 1.961,-1.609 l 0.615,-3.064 c 0.443,-0.154 0.873,-0.336 1.289,-0.537 l 2.604,1.736 c 0.338,0.225 0.725,0.336 1.107,0.336 0.518,0 1.029,-0.199 1.416,-0.586 l 1.924,-1.924 c 0.674,-0.674 0.779,-1.73 0.25,-2.523 L 26.79,21.226 c 0.203,-0.418 0.383,-0.848 0.537,-1.291 l 3.064,-0.613 C 31.326,19.137 32,18.314 32,17.361 v -2.72 c 0,-0.953 -0.674,-1.774 -1.609,-1.961 z m -3.457,5.295 c -0.695,0.139 -1.264,0.635 -1.496,1.305 -0.129,0.369 -0.279,0.727 -0.447,1.074 -0.311,0.639 -0.258,1.393 0.135,1.982 l 1.736,2.604 -1.924,1.924 -2.604,-1.736 C 22,24.905 21.613,24.792 21.225,24.792 c -0.297,0 -0.596,0.066 -0.871,0.199 -0.348,0.168 -0.705,0.32 -1.076,0.449 -0.668,0.232 -1.164,0.801 -1.303,1.496 l -0.615,3.066 h -2.72 l -0.613,-3.066 c -0.139,-0.695 -0.635,-1.264 -1.304,-1.496 -0.369,-0.129 -0.728,-0.279 -1.075,-0.447 -0.276,-0.135 -0.574,-0.201 -0.872,-0.201 -0.389,0 -0.775,0.113 -1.109,0.336 L 7.063,26.864 5.139,24.94 6.874,22.336 C 7.267,21.746 7.318,20.992 7.011,20.356 6.843,20.008 6.692,19.651 6.563,19.28 6.331,18.612 5.761,18.116 5.067,17.977 L 2.002,17.362 2,14.641 5.066,14.028 C 5.76,13.889 6.33,13.393 6.562,12.724 6.691,12.355 6.84,11.996 7.009,11.649 7.319,11.011 7.267,10.257 6.873,9.668 L 5.139,7.064 7.062,5.14 9.666,6.875 c 0.334,0.223 0.721,0.336 1.109,0.336 0.297,0 0.595,-0.066 0.871,-0.199 0.347,-0.168 0.705,-0.319 1.075,-0.448 0.669,-0.232 1.165,-0.802 1.304,-1.496 l 0.614,-3.065 2.72,-0.001 0.613,3.066 c 0.139,0.694 0.635,1.264 1.305,1.496 0.369,0.129 0.727,0.278 1.074,0.447 0.277,0.134 0.574,0.2 0.873,0.2 0.389,0 0.775,-0.113 1.109,-0.336 l 2.604,-1.735 1.924,1.924 -1.736,2.604 c -0.393,0.59 -0.443,1.343 -0.137,1.98 0.168,0.347 0.32,0.705 0.449,1.075 0.232,0.669 0.801,1.165 1.496,1.304 l 3.064,0.614 0.003,2.72 -3.066,0.614 z"
       id="path4"
       inkscape:connector-curvature="0"
       style="fill:#333333" /><path
       d="m 16,9.001 c -3.865,0 -7,3.135 -7,7 0,3.866 3.135,7 7,7 3.865,0 7,-3.135 7,-7 0,-3.865 -3.135,-7 -7,-7 z m 0,13.126 c -3.382,0 -6.125,-2.744 -6.125,-6.125 0,-3.382 2.743,-6.125 6.125,-6.125 3.381,0 6.125,2.743 6.125,6.125 0,3.381 -2.744,6.125 -6.125,6.125 z"
       id="path6"
       inkscape:connector-curvature="0"
       style="fill:#333333" /><path
       d="m 16,12.001 c -2.21,0 -4,1.79 -4,4 0,2.209 1.79,4 4,4 2.209,0 4,-1.791 4,-4 0,-2.209 -1.791,-4 -4,-4 z m 0,7.001 c -1.656,0 -3,-1.344 -3,-3 0,-1.656 1.344,-3 3,-3 1.656,0 3,1.344 3,3 0,1.656 -1.344,3 -3,3 z"
       id="path8"
       inkscape:connector-curvature="0"
       style="fill:#333333" /></g></svg>